HIERARCHY
ROOT Hips
{
	OFFSET 0.000000 88.474243 0.000000
	CHANNELS 6 Xposition Yposition Zposition Zrotation Yrotation Xrotation 
	JOINT Hips_Spine
	{
		OFFSET 0.000000 0.000000 0.000000
		CHANNELS 3 Zrotation Yrotation Xrotation
		JOINT Spine
		{
			OFFSET 0.005100 8.711998 -0.691000
			CHANNELS 3 Zrotation Yrotation Xrotation
			JOINT Spine1
			{
				OFFSET -0.009200 8.660301 -1.275000
				CHANNELS 3 Zrotation Yrotation Xrotation
				JOINT Spine2
				{
					OFFSET 0.006300 9.852501 -1.857000
					CHANNELS 3 Zrotation Yrotation Xrotation
					JOINT Spine2_Neck
					{
						OFFSET 0.000000 0.000000 0.000000
						CHANNELS 3 Zrotation Yrotation Xrotation
						JOINT Neck
						{
							OFFSET 0.016300 11.420799 -0.263300
							CHANNELS 3 Zrotation Yrotation Xrotation
							End Site #name: Head
							{
								OFFSET -0.019200 9.262405 2.362500
							}
						}
					}
					JOINT Spine2_LeftShoulder
					{
						OFFSET 0.000000 0.000000 0.000000
						CHANNELS 3 Zrotation Yrotation Xrotation
						JOINT LeftShoulder
						{
							OFFSET 5.616900 6.732201 -0.345700
							CHANNELS 3 Zrotation Yrotation Xrotation
							JOINT LeftArm
							{
								OFFSET 10.664888 -0.183372 -2.440700
								CHANNELS 3 Zrotation Yrotation Xrotation
								JOINT LeftForeArm
								{
									OFFSET 27.459126 0.000000 0.000000
									CHANNELS 3 Zrotation Yrotation Xrotation
									End Site #name: LeftHand
									{
										OFFSET 21.306858 0.000000 0.000000
									}
								}
							}
						}
					}
					JOINT Spine2_RightShoulder
					{
						OFFSET 0.000000 0.000000 0.000000
						CHANNELS 3 Zrotation Yrotation Xrotation
						JOINT RightShoulder
						{
							OFFSET -5.580300 6.737503 -0.344400
							CHANNELS 3 Zrotation Yrotation Xrotation
							JOINT RightArm
							{
								OFFSET -10.679335 -0.188484 -2.383900
								CHANNELS 3 Zrotation Yrotation Xrotation
								JOINT RightForeArm
								{
									OFFSET -27.503529 0.000000 0.000000
									CHANNELS 3 Zrotation Yrotation Xrotation
									End Site #name: RightHand
									{
										OFFSET -21.306808 0.000000 0.000000
									}
								}
							}
						}
					}
				}
			}
		}
	}
	JOINT Hips_LeftUpLeg
	{
		OFFSET 0.000000 0.000000 0.000000
		CHANNELS 3 Zrotation Yrotation Xrotation
		JOINT LeftUpLeg
		{
			OFFSET 6.857700 -6.739601 0.312100
			CHANNELS 3 Zrotation Yrotation Xrotation
			JOINT LeftLeg
			{
				OFFSET -0.367590 -34.731552 -4.572400
				CHANNELS 3 Zrotation Yrotation Xrotation
				End Site #name: LeftFoot
				{
					OFFSET 0.367590 -34.656704 -6.067400
				}
			}
		}
	}
	JOINT Hips_RightUpLeg
	{
		OFFSET 0.000000 0.000000 0.000000
		CHANNELS 3 Zrotation Yrotation Xrotation
		JOINT RightUpLeg
		{
			OFFSET -6.876100 -6.733299 0.301000
			CHANNELS 3 Zrotation Yrotation Xrotation
			JOINT RightLeg
			{
				OFFSET 0.347353 -34.795158 -4.515900
				CHANNELS 3 Zrotation Yrotation Xrotation
				End Site #name: RightFoot
				{
					OFFSET -0.347353 -34.589367 -6.070300
				}
			}
		}
	}
}
MOTION
Frames: 6
Frame Time: 0.041667
0.251015 -0.044813 -0.305525 11.760072 -66.439104 -10.276345 0.000000 0.000000 0.000000 0.913386 -0.598140 8.575032 -4.824258 -2.948291 6.052527 0.000000 0.000000 0.000000 -6.170823 -2.325758 8.727167 8.122363 26.339067 -6.793929 -4.783599 -3.755430 9.242509 8.610540 -13.106713 -10.158043 -9.921726 8.884197 -46.077297 -5.062079 -24.198186 7.145663 -4.187568 -2.719975 6.774574 13.324028 0.286380 -4.036742 40.315127 -15.931924 -35.197509 -4.713336 85.928417 -4.632160 0.000000 0.000000 0.000000 22.968151 38.728754 -27.944855 5.113925 12.898698 50.667343 0.000000 0.000000 0.000000 -13.749064 -2.870767 -43.094974 5.306019 12.291639 45.801572 
0.710750 -0.324801 -0.498446 13.772641 -71.284307 -12.371098 0.000000 0.000000 0.000000 -1.532619 -1.276845 6.425836 -5.562127 -3.082054 6.384371 0.000000 0.000000 0.000000 -5.639147 -2.343516 5.694511 8.490254 31.362208 -6.678936 -5.443830 -3.271211 6.116341 2.149294 -12.411917 -6.030773 -11.527454 14.468665 -48.290490 -2.938360 -38.109255 2.393412 -5.897235 -3.001103 6.803611 10.629488 2.951023 -2.679045 26.110633 -9.931588 -36.205260 -2.270011 86.583229 -2.935395 0.000000 0.000000 0.000000 24.510700 36.021862 -27.351501 4.677068 13.725183 52.416564 0.000000 -0.000000 0.000000 -12.150123 -0.998207 -45.151712 6.174429 15.251240 45.743746 
1.102715 -0.484328 -0.852188 16.442355 -74.990839 -15.070075 0.000000 0.000000 0.000000 -2.336227 -0.960886 7.613620 -5.407342 -3.436537 7.087668 0.000000 0.000000 0.000000 -5.800274 -2.733258 6.173569 4.757485 35.819114 -8.766854 -5.532818 -3.266886 6.964886 4.940829 -14.662355 -4.240401 -9.677339 12.088458 -55.670666 -0.840529 -28.269722 0.556958 -6.344427 -3.415407 7.022774 7.904312 3.237491 -1.784627 24.822589 -9.685511 -36.938654 -179.206564 73.352151 -179.873026 0.000000 0.000000 0.000000 25.016322 35.424881 -26.914534 5.256317 13.665817 53.480656 0.000000 -0.000000 0.000000 -10.683407 0.481120 -46.846320 6.846306 16.868230 45.576888 
1.511987 -0.641223 -1.199603 18.340107 -77.490679 -16.760457 0.000000 0.000000 0.000000 -2.644654 -1.182002 8.219850 -5.756560 -3.517075 7.536541 0.000000 0.000000 0.000000 -5.735064 -2.786746 6.429883 1.380213 35.521861 -11.342729 -5.680620 -3.130359 7.557797 7.829499 -14.470293 -3.776703 -7.449296 12.223501 -58.959727 0.431987 -30.092946 1.050909 -6.288509 -3.439661 7.625748 3.294181 2.425734 -2.065367 18.258255 -10.162337 -42.131303 -179.021869 65.413107 -179.984455 0.000000 0.000000 0.000000 24.834420 34.845164 -27.107273 5.819058 13.194353 53.479621 0.000000 0.000000 0.000000 -9.625768 1.704754 -48.256667 6.887844 17.741615 45.188313 
1.915031 -0.826868 -1.489735 19.887280 -78.887452 -18.103489 0.000000 0.000000 0.000000 -2.464399 -1.252015 7.854458 -6.023921 -3.677358 7.829735 0.000000 0.000000 0.000000 -5.889651 -2.967975 6.544812 -0.174960 34.364912 -12.050480 -5.863509 -3.318297 7.695314 9.165637 -12.887548 -3.411577 -5.270620 13.052200 -58.352540 0.614147 -35.635658 1.436000 -6.368077 -3.626021 7.933239 -0.156396 1.741568 -2.540678 12.853543 -14.146813 -45.872524 -178.487284 63.906888 179.919231 0.000000 0.000000 0.000000 24.853156 34.774658 -27.386588 5.870915 12.978816 53.549799 0.000000 0.000000 0.000000 -8.982493 2.670482 -49.586029 6.874743 18.175380 45.151355 
2.301525 -1.053252 -1.705177 20.710602 -79.600194 -18.745485 0.000000 0.000000 0.000000 -2.275239 -1.290460 7.631206 -6.149534 -3.934309 7.744678 0.000000 0.000000 0.000000 -6.030793 -3.206375 6.475542 -0.891711 33.360042 -12.375193 -5.903672 -3.658822 7.578746 9.521984 -12.114725 -3.063994 -4.158699 12.559570 -56.632815 0.492183 -40.914696 2.285061 -6.454225 -3.872825 7.845640 -2.151879 0.625730 -2.995709 10.082474 -18.302120 -51.187121 -177.712402 65.136595 179.995656 0.000000 0.000000 0.000000 24.922491 35.052130 -27.682327 5.742729 12.950344 53.746625 0.000000 0.000000 0.000000 -8.632096 3.436482 -50.773133 7.062411 18.521374 45.502003 
